<svg xmlns="http://www.w3.org/2000/svg" xmlns:xlink="http://www.w3.org/1999/xlink" width="500" zoomAndPan="magnify" viewBox="0 0 375 374.999991" height="500" preserveAspectRatio="xMidYMid meet" version="1.0"><defs><g/><clipPath id="759b0e0071"><path d="M 76.3125 142.722656 L 198.5625 142.722656 L 198.5625 231.972656 L 76.3125 231.972656 Z M 76.3125 142.722656 " clip-rule="nonzero"/></clipPath><clipPath id="221d42e196"><path d="M 20 10 L 122.5625 10 L 122.5625 81 L 20 81 Z M 20 10 " clip-rule="nonzero"/></clipPath><clipPath id="9b6fdc60f6"><path d="M 0.3125 1.015625 L 55 1.015625 L 55 89.972656 L 0.3125 89.972656 Z M 0.3125 1.015625 " clip-rule="nonzero"/></clipPath><clipPath id="0412894dc5"><rect x="0" width="123" y="0" height="90"/></clipPath><clipPath id="88b404b366"><path d="M 0.121094 6 L 21 6 L 21 31 L 0.121094 31 Z M 0.121094 6 " clip-rule="nonzero"/></clipPath><clipPath id="f5448fd20c"><rect x="0" width="183" y="0" height="41"/></clipPath><clipPath id="4c5e5a0401"><path d="M 0.320312 2 L 9 2 L 9 7 L 0.320312 7 Z M 0.320312 2 " clip-rule="nonzero"/></clipPath><clipPath id="b0626c626e"><rect x="0" width="142" y="0" height="10"/></clipPath></defs><g clip-path="url(#759b0e0071)"><g transform="matrix(1, 0, 0, 1, 76, 142)"><g clip-path="url(#0412894dc5)"><path fill="#07416b" d="M 56.390625 68.398438 C 55.9375 68.425781 55.480469 68.445312 55.019531 68.445312 C 42.34375 68.445312 32.066406 58.167969 32.066406 45.492188 C 32.066406 32.8125 42.34375 22.535156 55.019531 22.535156 C 55.480469 22.535156 55.9375 22.554688 56.390625 22.582031 C 44.355469 23.296875 34.816406 33.277344 34.816406 45.492188 C 34.816406 57.703125 44.355469 67.6875 56.390625 68.398438 " fill-opacity="1" fill-rule="nonzero"/><g clip-path="url(#221d42e196)"><path fill="#00adef" d="M 73.996094 25.683594 C 69.152344 21.15625 62.652344 18.382812 55.503906 18.382812 C 40.773438 18.382812 28.789062 30.128906 28.40625 44.761719 C 28.398438 45.003906 28.394531 45.246094 28.394531 45.488281 C 28.394531 60.460938 40.53125 72.597656 55.503906 72.597656 C 62.652344 72.597656 69.152344 69.824219 73.996094 65.296875 L 100.007812 65.296875 L 82.074219 68.359375 C 75.644531 75.820312 66.125 80.546875 55.503906 80.546875 C 36.140625 80.546875 20.445312 64.851562 20.445312 45.488281 C 20.445312 26.128906 36.140625 10.433594 55.503906 10.433594 C 66.125 10.433594 75.644531 15.160156 82.074219 22.621094 L 122.5625 25.683594 L 73.996094 25.683594 " fill-opacity="1" fill-rule="nonzero"/></g><path fill="#07416b" d="M 80.84375 72.421875 C 78.21875 75.90625 75.097656 78.992188 71.582031 81.578125 C 71.476562 81.535156 71.375 81.488281 71.269531 81.4375 L 68.492188 80.117188 C 73.046875 78.40625 77.253906 75.804688 80.84375 72.421875 " fill-opacity="1" fill-rule="nonzero"/><g clip-path="url(#9b6fdc60f6)"><path fill="#07416b" d="M 18.515625 45.492188 C 18.515625 65.535156 34.550781 81.910156 54.464844 82.460938 L 51.988281 89.425781 C 51.949219 89.539062 51.902344 89.644531 51.855469 89.75 C 49.648438 90.085938 47.386719 90.261719 45.085938 90.261719 C 42.78125 90.261719 40.519531 90.085938 38.3125 89.75 C 38.269531 89.644531 38.222656 89.539062 38.179688 89.425781 L 35.683594 82.398438 C 34.226562 78.308594 29.554688 76.371094 25.632812 78.238281 L 18.898438 81.4375 C 18.796875 81.488281 18.691406 81.535156 18.585938 81.578125 C 14.925781 78.886719 11.691406 75.648438 8.996094 71.988281 C 9.039062 71.882812 9.085938 71.78125 9.136719 71.675781 L 12.339844 64.941406 C 14.203125 61.019531 12.265625 56.347656 8.175781 54.890625 L 1.148438 52.394531 C 1.039062 52.355469 0.933594 52.304688 0.824219 52.261719 C 0.488281 50.054688 0.3125 47.792969 0.3125 45.492188 C 0.3125 43.1875 0.488281 40.925781 0.824219 38.71875 C 0.933594 38.675781 1.039062 38.625 1.148438 38.585938 L 8.175781 36.089844 C 12.265625 34.632812 14.203125 29.960938 12.339844 26.039062 L 9.136719 19.304688 C 9.085938 19.203125 9.039062 19.097656 8.996094 18.992188 C 11.691406 15.332031 14.925781 12.09375 18.585938 9.402344 C 18.691406 9.445312 18.796875 9.492188 18.898438 9.542969 L 25.632812 12.746094 C 29.554688 14.609375 34.226562 12.671875 35.683594 8.582031 L 38.179688 1.554688 C 38.222656 1.441406 38.269531 1.335938 38.3125 1.230469 C 40.519531 0.894531 42.78125 0.71875 45.085938 0.71875 C 47.386719 0.71875 49.648438 0.894531 51.855469 1.230469 C 51.902344 1.335938 51.949219 1.441406 51.988281 1.554688 L 54.464844 8.519531 C 34.550781 9.070312 18.515625 25.441406 18.515625 45.492188 " fill-opacity="1" fill-rule="nonzero"/></g><path fill="#07416b" d="M 68.492188 10.863281 L 71.269531 9.542969 C 71.375 9.492188 71.476562 9.445312 71.582031 9.402344 C 75.09375 11.988281 78.214844 15.074219 80.84375 18.554688 C 77.25 15.175781 73.046875 12.570312 68.492188 10.863281 " fill-opacity="1" fill-rule="nonzero"/></g></g></g><g transform="matrix(1, 0, 0, 1, 123, 169)"><g clip-path="url(#f5448fd20c)"><g clip-path="url(#88b404b366)"><g fill="#07416b" fill-opacity="1"><g transform="translate(0.224865, 30.147307)"><g><path d="M 13.34375 0 L 7.34375 0 L 7.34375 -18.6875 L 0.328125 -18.6875 L 0.328125 -23.359375 L 20.359375 -23.359375 L 20.359375 -18.6875 L 13.34375 -18.6875 Z M 13.34375 0 "/></g></g></g></g><g fill="#07416b" fill-opacity="1"><g transform="translate(20.916788, 30.147307)"><g><path d="M 2 -23.359375 L 16.015625 -23.359375 C 18.359375 -23.359375 20.054688 -22.828125 21.109375 -21.765625 C 22.160156 -20.710938 22.6875 -19.019531 22.6875 -16.6875 L 22.6875 -13.6875 C 22.6875 -11.832031 22.378906 -10.394531 21.765625 -9.375 C 21.160156 -8.351562 20.191406 -7.675781 18.859375 -7.34375 L 23.03125 0 L 16.515625 0 L 12.6875 -7.015625 L 8.015625 -7.015625 L 8.015625 0 L 2 0 Z M 16.6875 -16.6875 C 16.6875 -18.019531 16.019531 -18.6875 14.6875 -18.6875 L 8.015625 -18.6875 L 8.015625 -11.6875 L 14.6875 -11.6875 C 16.019531 -11.6875 16.6875 -12.351562 16.6875 -13.6875 Z M 16.6875 -16.6875 "/></g></g></g><g fill="#07416b" fill-opacity="1"><g transform="translate(44.94612, 30.147307)"><g><path d="M 20.53125 0 L 2 0 L 2 -23.359375 L 20.53125 -23.359375 L 20.53125 -18.6875 L 8.015625 -18.6875 L 8.015625 -14.1875 L 17.859375 -14.1875 L 17.859375 -9.515625 L 8.015625 -9.515625 L 8.015625 -4.671875 L 20.53125 -4.671875 Z M 20.53125 0 "/></g></g></g><g fill="#07416b" fill-opacity="1"><g transform="translate(66.138651, 30.147307)"><g><path d="M 6.171875 0 L -0.328125 0 L 8.515625 -23.359375 L 15.1875 -23.359375 L 24.03125 0 L 17.515625 0 L 16.015625 -4.171875 L 7.671875 -4.171875 Z M 9.171875 -8.515625 L 14.515625 -8.515625 L 11.84375 -16.359375 Z M 9.171875 -8.515625 "/></g></g></g><g fill="#07416b" fill-opacity="1"><g transform="translate(89.83423, 30.147307)"><g><path d="M 1.296875 -4.84375 C 7.398438 -4.507812 11.53125 -4.34375 13.6875 -4.34375 C 14.195312 -4.34375 14.601562 -4.488281 14.90625 -4.78125 C 15.207031 -5.082031 15.359375 -5.488281 15.359375 -6 L 15.359375 -9.015625 L 7.671875 -9.015625 C 5.335938 -9.015625 3.640625 -9.539062 2.578125 -10.59375 C 1.523438 -11.65625 1 -13.351562 1 -15.6875 L 1 -16.6875 C 1 -19.019531 1.523438 -20.710938 2.578125 -21.765625 C 3.640625 -22.828125 5.335938 -23.359375 7.671875 -23.359375 L 19.390625 -23.359375 L 19.390625 -18.6875 L 9.015625 -18.6875 C 7.679688 -18.6875 7.015625 -18.019531 7.015625 -16.6875 L 7.015625 -16.015625 C 7.015625 -14.679688 7.679688 -14.015625 9.015625 -14.015625 L 15.015625 -14.015625 C 17.203125 -14.015625 18.804688 -13.503906 19.828125 -12.484375 C 20.847656 -11.460938 21.359375 -9.859375 21.359375 -7.671875 L 21.359375 -6 C 21.359375 -3.820312 20.847656 -2.222656 19.828125 -1.203125 C 18.804688 -0.179688 17.203125 0.328125 15.015625 0.328125 C 13.878906 0.328125 12.679688 0.304688 11.421875 0.265625 L 8.34375 0.140625 C 6.070312 0.0234375 3.722656 -0.128906 1.296875 -0.328125 Z M 1.296875 -4.84375 "/></g></g></g><g fill="#07416b" fill-opacity="1"><g transform="translate(112.194858, 30.147307)"><g><path d="M 17.015625 -23.359375 L 23.03125 -23.359375 L 23.03125 -6.34375 C 23.03125 -4.007812 22.5 -2.3125 21.4375 -1.25 C 20.382812 -0.195312 18.691406 0.328125 16.359375 0.328125 L 8.671875 0.328125 C 6.335938 0.328125 4.640625 -0.195312 3.578125 -1.25 C 2.523438 -2.3125 2 -4.007812 2 -6.34375 L 2 -23.359375 L 8.015625 -23.359375 L 8.015625 -6.34375 C 8.015625 -5.007812 8.679688 -4.34375 10.015625 -4.34375 L 15.015625 -4.34375 C 16.347656 -4.34375 17.015625 -5.007812 17.015625 -6.34375 Z M 17.015625 -23.359375 "/></g></g></g><g fill="#07416b" fill-opacity="1"><g transform="translate(137.225404, 30.147307)"><g><path d="M 2 -23.359375 L 16.015625 -23.359375 C 18.359375 -23.359375 20.054688 -22.828125 21.109375 -21.765625 C 22.160156 -20.710938 22.6875 -19.019531 22.6875 -16.6875 L 22.6875 -13.6875 C 22.6875 -11.832031 22.378906 -10.394531 21.765625 -9.375 C 21.160156 -8.351562 20.191406 -7.675781 18.859375 -7.34375 L 23.03125 0 L 16.515625 0 L 12.6875 -7.015625 L 8.015625 -7.015625 L 8.015625 0 L 2 0 Z M 16.6875 -16.6875 C 16.6875 -18.019531 16.019531 -18.6875 14.6875 -18.6875 L 8.015625 -18.6875 L 8.015625 -11.6875 L 14.6875 -11.6875 C 16.019531 -11.6875 16.6875 -12.351562 16.6875 -13.6875 Z M 16.6875 -16.6875 "/></g></g></g><g fill="#07416b" fill-opacity="1"><g transform="translate(161.254736, 30.147307)"><g><path d="M 20.53125 0 L 2 0 L 2 -23.359375 L 20.53125 -23.359375 L 20.53125 -18.6875 L 8.015625 -18.6875 L 8.015625 -14.1875 L 17.859375 -14.1875 L 17.859375 -9.515625 L 8.015625 -9.515625 L 8.015625 -4.671875 L 20.53125 -4.671875 Z M 20.53125 0 "/></g></g></g></g></g><g transform="matrix(1, 0, 0, 1, 178, 204)"><g clip-path="url(#b0626c626e)"><g clip-path="url(#4c5e5a0401)"><g fill="#07416b" fill-opacity="1"><g transform="translate(0.477214, 6.750578)"><g><path d="M 7.625 -4.6875 L 6.09375 0 L 4.9375 0 L 3.90625 -3.171875 L 2.84375 0 L 1.6875 0 L 0.140625 -4.6875 L 1.265625 -4.6875 L 2.328125 -1.390625 L 3.4375 -4.6875 L 4.4375 -4.6875 L 5.5 -1.359375 L 6.59375 -4.6875 Z M 7.625 -4.6875 "/></g></g></g></g><g fill="#07416b" fill-opacity="1"><g transform="translate(9.39923, 6.750578)"><g><path d="M 4.171875 -0.875 L 4.171875 0 L 0.5625 0 L 0.5625 -4.6875 L 4.09375 -4.6875 L 4.09375 -3.8125 L 1.625 -3.8125 L 1.625 -2.796875 L 3.8125 -2.796875 L 3.8125 -1.953125 L 1.625 -1.953125 L 1.625 -0.875 Z M 4.171875 -0.875 "/></g></g></g><g fill="#07416b" fill-opacity="1"><g transform="translate(15.030663, 6.750578)"><g><path d="M 4 -2.4375 C 4.257812 -2.351562 4.460938 -2.210938 4.609375 -2.015625 C 4.765625 -1.816406 4.84375 -1.570312 4.84375 -1.28125 C 4.84375 -0.863281 4.679688 -0.546875 4.359375 -0.328125 C 4.046875 -0.109375 3.582031 0 2.96875 0 L 0.5625 0 L 0.5625 -4.6875 L 2.84375 -4.6875 C 3.414062 -4.6875 3.851562 -4.578125 4.15625 -4.359375 C 4.457031 -4.140625 4.609375 -3.84375 4.609375 -3.46875 C 4.609375 -3.238281 4.550781 -3.035156 4.4375 -2.859375 C 4.332031 -2.679688 4.1875 -2.539062 4 -2.4375 Z M 1.625 -3.859375 L 1.625 -2.765625 L 2.703125 -2.765625 C 2.972656 -2.765625 3.175781 -2.8125 3.3125 -2.90625 C 3.457031 -3 3.53125 -3.132812 3.53125 -3.3125 C 3.53125 -3.5 3.457031 -3.632812 3.3125 -3.71875 C 3.175781 -3.8125 2.972656 -3.859375 2.703125 -3.859375 Z M 2.890625 -0.8125 C 3.179688 -0.8125 3.398438 -0.859375 3.546875 -0.953125 C 3.691406 -1.046875 3.765625 -1.191406 3.765625 -1.390625 C 3.765625 -1.773438 3.472656 -1.96875 2.890625 -1.96875 L 1.625 -1.96875 L 1.625 -0.8125 Z M 2.890625 -0.8125 "/></g></g></g><g fill="#07416b" fill-opacity="1"><g transform="translate(21.290785, 6.750578)"><g/></g></g><g fill="#07416b" fill-opacity="1"><g transform="translate(24.327204, 6.750578)"><g><path d="M 0.5625 -4.6875 L 2.6875 -4.6875 C 3.1875 -4.6875 3.628906 -4.585938 4.015625 -4.390625 C 4.410156 -4.191406 4.71875 -3.914062 4.9375 -3.5625 C 5.15625 -3.21875 5.265625 -2.8125 5.265625 -2.34375 C 5.265625 -1.875 5.15625 -1.460938 4.9375 -1.109375 C 4.71875 -0.753906 4.410156 -0.476562 4.015625 -0.28125 C 3.628906 -0.09375 3.1875 0 2.6875 0 L 0.5625 0 Z M 2.625 -0.890625 C 3.09375 -0.890625 3.46875 -1.019531 3.75 -1.28125 C 4.03125 -1.539062 4.171875 -1.894531 4.171875 -2.34375 C 4.171875 -2.789062 4.03125 -3.144531 3.75 -3.40625 C 3.46875 -3.664062 3.09375 -3.796875 2.625 -3.796875 L 1.640625 -3.796875 L 1.640625 -0.890625 Z M 2.625 -0.890625 "/></g></g></g><g fill="#07416b" fill-opacity="1"><g transform="translate(30.995298, 6.750578)"><g><path d="M 4.171875 -0.875 L 4.171875 0 L 0.5625 0 L 0.5625 -4.6875 L 4.09375 -4.6875 L 4.09375 -3.8125 L 1.625 -3.8125 L 1.625 -2.796875 L 3.8125 -2.796875 L 3.8125 -1.953125 L 1.625 -1.953125 L 1.625 -0.875 Z M 4.171875 -0.875 "/></g></g></g><g fill="#07416b" fill-opacity="1"><g transform="translate(36.626732, 6.750578)"><g><path d="M 5.0625 -4.6875 L 3.03125 0 L 1.953125 0 L -0.0625 -4.6875 L 1.109375 -4.6875 L 2.53125 -1.34375 L 3.984375 -4.6875 Z M 5.0625 -4.6875 "/></g></g></g><g fill="#07416b" fill-opacity="1"><g transform="translate(42.759772, 6.750578)"><g><path d="M 4.171875 -0.875 L 4.171875 0 L 0.5625 0 L 0.5625 -4.6875 L 4.09375 -4.6875 L 4.09375 -3.8125 L 1.625 -3.8125 L 1.625 -2.796875 L 3.8125 -2.796875 L 3.8125 -1.953125 L 1.625 -1.953125 L 1.625 -0.875 Z M 4.171875 -0.875 "/></g></g></g><g fill="#07416b" fill-opacity="1"><g transform="translate(48.391206, 6.750578)"><g><path d="M 0.5625 -4.6875 L 1.640625 -4.6875 L 1.640625 -0.875 L 3.984375 -0.875 L 3.984375 0 L 0.5625 0 Z M 0.5625 -4.6875 "/></g></g></g><g fill="#07416b" fill-opacity="1"><g transform="translate(53.574526, 6.750578)"><g><path d="M 2.828125 0.078125 C 2.335938 0.078125 1.894531 -0.0234375 1.5 -0.234375 C 1.113281 -0.441406 0.8125 -0.726562 0.59375 -1.09375 C 0.375 -1.46875 0.265625 -1.882812 0.265625 -2.34375 C 0.265625 -2.800781 0.375 -3.210938 0.59375 -3.578125 C 0.8125 -3.953125 1.113281 -4.242188 1.5 -4.453125 C 1.894531 -4.660156 2.335938 -4.765625 2.828125 -4.765625 C 3.304688 -4.765625 3.738281 -4.660156 4.125 -4.453125 C 4.519531 -4.242188 4.828125 -3.953125 5.046875 -3.578125 C 5.273438 -3.210938 5.390625 -2.800781 5.390625 -2.34375 C 5.390625 -1.882812 5.273438 -1.46875 5.046875 -1.09375 C 4.828125 -0.726562 4.519531 -0.441406 4.125 -0.234375 C 3.738281 -0.0234375 3.304688 0.078125 2.828125 0.078125 Z M 2.828125 -0.84375 C 3.097656 -0.84375 3.34375 -0.90625 3.5625 -1.03125 C 3.789062 -1.15625 3.96875 -1.332031 4.09375 -1.5625 C 4.21875 -1.789062 4.28125 -2.050781 4.28125 -2.34375 C 4.28125 -2.632812 4.21875 -2.890625 4.09375 -3.109375 C 3.96875 -3.335938 3.789062 -3.515625 3.5625 -3.640625 C 3.34375 -3.773438 3.097656 -3.84375 2.828125 -3.84375 C 2.546875 -3.84375 2.289062 -3.773438 2.0625 -3.640625 C 1.84375 -3.515625 1.671875 -3.335938 1.546875 -3.109375 C 1.421875 -2.890625 1.359375 -2.632812 1.359375 -2.34375 C 1.359375 -2.050781 1.421875 -1.789062 1.546875 -1.5625 C 1.671875 -1.332031 1.84375 -1.15625 2.0625 -1.03125 C 2.289062 -0.90625 2.546875 -0.84375 2.828125 -0.84375 Z M 2.828125 -0.84375 "/></g></g></g><g fill="#07416b" fill-opacity="1"><g transform="translate(60.363009, 6.750578)"><g><path d="M 2.578125 -4.6875 C 2.992188 -4.6875 3.351562 -4.613281 3.65625 -4.46875 C 3.96875 -4.332031 4.203125 -4.132812 4.359375 -3.875 C 4.523438 -3.625 4.609375 -3.328125 4.609375 -2.984375 C 4.609375 -2.640625 4.523438 -2.335938 4.359375 -2.078125 C 4.203125 -1.828125 3.96875 -1.632812 3.65625 -1.5 C 3.351562 -1.363281 2.992188 -1.296875 2.578125 -1.296875 L 1.640625 -1.296875 L 1.640625 0 L 0.5625 0 L 0.5625 -4.6875 Z M 2.515625 -2.171875 C 2.847656 -2.171875 3.097656 -2.238281 3.265625 -2.375 C 3.429688 -2.519531 3.515625 -2.722656 3.515625 -2.984375 C 3.515625 -3.242188 3.429688 -3.441406 3.265625 -3.578125 C 3.097656 -3.722656 2.847656 -3.796875 2.515625 -3.796875 L 1.640625 -3.796875 L 1.640625 -2.171875 Z M 2.515625 -2.171875 "/></g></g></g><g fill="#07416b" fill-opacity="1"><g transform="translate(66.402416, 6.750578)"><g><path d="M 4.8125 0 L 4.8125 -2.8125 L 3.4375 -0.5 L 2.9375 -0.5 L 1.578125 -2.75 L 1.578125 0 L 0.5625 0 L 0.5625 -4.6875 L 1.453125 -4.6875 L 3.203125 -1.765625 L 4.921875 -4.6875 L 5.8125 -4.6875 L 5.828125 0 Z M 4.8125 0 "/></g></g></g><g fill="#07416b" fill-opacity="1"><g transform="translate(73.93329, 6.750578)"><g><path d="M 4.171875 -0.875 L 4.171875 0 L 0.5625 0 L 0.5625 -4.6875 L 4.09375 -4.6875 L 4.09375 -3.8125 L 1.625 -3.8125 L 1.625 -2.796875 L 3.8125 -2.796875 L 3.8125 -1.953125 L 1.625 -1.953125 L 1.625 -0.875 Z M 4.171875 -0.875 "/></g></g></g><g fill="#07416b" fill-opacity="1"><g transform="translate(79.564724, 6.750578)"><g><path d="M 4.84375 -4.6875 L 4.84375 0 L 3.953125 0 L 1.625 -2.84375 L 1.625 0 L 0.5625 0 L 0.5625 -4.6875 L 1.453125 -4.6875 L 3.78125 -1.84375 L 3.78125 -4.6875 Z M 4.84375 -4.6875 "/></g></g></g><g fill="#07416b" fill-opacity="1"><g transform="translate(86.112439, 6.750578)"><g><path d="M 1.53125 -3.796875 L 0.03125 -3.796875 L 0.03125 -4.6875 L 4.109375 -4.6875 L 4.109375 -3.796875 L 2.609375 -3.796875 L 2.609375 0 L 1.53125 0 Z M 1.53125 -3.796875 "/></g></g></g><g fill="#07416b" fill-opacity="1"><g transform="translate(91.393993, 6.750578)"><g/></g></g><g fill="#07416b" fill-opacity="1"><g transform="translate(94.430412, 6.750578)"><g/></g></g><g fill="#07416b" fill-opacity="1"><g transform="translate(97.472528, 6.750578)"><g><path d="M 2.09375 0.078125 C 1.71875 0.078125 1.359375 0.03125 1.015625 -0.0625 C 0.671875 -0.164062 0.394531 -0.300781 0.1875 -0.46875 L 0.5625 -1.28125 C 0.757812 -1.132812 0.992188 -1.015625 1.265625 -0.921875 C 1.546875 -0.835938 1.820312 -0.796875 2.09375 -0.796875 C 2.40625 -0.796875 2.632812 -0.835938 2.78125 -0.921875 C 2.925781 -1.015625 3 -1.140625 3 -1.296875 C 3 -1.398438 2.953125 -1.488281 2.859375 -1.5625 C 2.773438 -1.632812 2.664062 -1.691406 2.53125 -1.734375 C 2.394531 -1.785156 2.210938 -1.835938 1.984375 -1.890625 C 1.628906 -1.972656 1.335938 -2.054688 1.109375 -2.140625 C 0.878906 -2.234375 0.679688 -2.367188 0.515625 -2.546875 C 0.359375 -2.734375 0.28125 -2.984375 0.28125 -3.296875 C 0.28125 -3.578125 0.351562 -3.828125 0.5 -4.046875 C 0.644531 -4.265625 0.863281 -4.4375 1.15625 -4.5625 C 1.457031 -4.695312 1.820312 -4.765625 2.25 -4.765625 C 2.550781 -4.765625 2.84375 -4.726562 3.125 -4.65625 C 3.414062 -4.582031 3.664062 -4.476562 3.875 -4.34375 L 3.546875 -3.53125 C 3.109375 -3.769531 2.675781 -3.890625 2.25 -3.890625 C 1.945312 -3.890625 1.722656 -3.835938 1.578125 -3.734375 C 1.429688 -3.640625 1.359375 -3.515625 1.359375 -3.359375 C 1.359375 -3.191406 1.441406 -3.066406 1.609375 -2.984375 C 1.773438 -2.910156 2.03125 -2.835938 2.375 -2.765625 C 2.726562 -2.679688 3.019531 -2.597656 3.25 -2.515625 C 3.476562 -2.429688 3.671875 -2.296875 3.828125 -2.109375 C 3.992188 -1.929688 4.078125 -1.6875 4.078125 -1.375 C 4.078125 -1.101562 4 -0.859375 3.84375 -0.640625 C 3.695312 -0.421875 3.472656 -0.242188 3.171875 -0.109375 C 2.878906 0.015625 2.519531 0.078125 2.09375 0.078125 Z M 2.09375 0.078125 "/></g></g></g><g fill="#07416b" fill-opacity="1"><g transform="translate(102.883248, 6.750578)"><g><path d="M 4.171875 -0.875 L 4.171875 0 L 0.5625 0 L 0.5625 -4.6875 L 4.09375 -4.6875 L 4.09375 -3.8125 L 1.625 -3.8125 L 1.625 -2.796875 L 3.8125 -2.796875 L 3.8125 -1.953125 L 1.625 -1.953125 L 1.625 -0.875 Z M 4.171875 -0.875 "/></g></g></g><g fill="#07416b" fill-opacity="1"><g transform="translate(108.514681, 6.750578)"><g><path d="M 3.53125 0 L 2.640625 -1.296875 L 1.640625 -1.296875 L 1.640625 0 L 0.5625 0 L 0.5625 -4.6875 L 2.578125 -4.6875 C 2.992188 -4.6875 3.351562 -4.613281 3.65625 -4.46875 C 3.96875 -4.332031 4.203125 -4.132812 4.359375 -3.875 C 4.523438 -3.625 4.609375 -3.328125 4.609375 -2.984375 C 4.609375 -2.640625 4.523438 -2.335938 4.359375 -2.078125 C 4.191406 -1.828125 3.957031 -1.632812 3.65625 -1.5 L 4.703125 0 Z M 3.515625 -2.984375 C 3.515625 -3.242188 3.429688 -3.441406 3.265625 -3.578125 C 3.097656 -3.722656 2.847656 -3.796875 2.515625 -3.796875 L 1.640625 -3.796875 L 1.640625 -2.171875 L 2.515625 -2.171875 C 2.847656 -2.171875 3.097656 -2.238281 3.265625 -2.375 C 3.429688 -2.519531 3.515625 -2.722656 3.515625 -2.984375 Z M 3.515625 -2.984375 "/></g></g></g><g fill="#07416b" fill-opacity="1"><g transform="translate(114.574159, 6.750578)"><g><path d="M 5.0625 -4.6875 L 3.03125 0 L 1.953125 0 L -0.0625 -4.6875 L 1.109375 -4.6875 L 2.53125 -1.34375 L 3.984375 -4.6875 Z M 5.0625 -4.6875 "/></g></g></g><g fill="#07416b" fill-opacity="1"><g transform="translate(120.707199, 6.750578)"><g><path d="M 0.5625 -4.6875 L 1.640625 -4.6875 L 1.640625 0 L 0.5625 0 Z M 0.5625 -4.6875 "/></g></g></g><g fill="#07416b" fill-opacity="1"><g transform="translate(124.044588, 6.750578)"><g><path d="M 2.796875 0.078125 C 2.316406 0.078125 1.882812 -0.0234375 1.5 -0.234375 C 1.113281 -0.441406 0.8125 -0.726562 0.59375 -1.09375 C 0.375 -1.457031 0.265625 -1.875 0.265625 -2.34375 C 0.265625 -2.800781 0.375 -3.210938 0.59375 -3.578125 C 0.8125 -3.953125 1.113281 -4.242188 1.5 -4.453125 C 1.882812 -4.660156 2.316406 -4.765625 2.796875 -4.765625 C 3.203125 -4.765625 3.566406 -4.691406 3.890625 -4.546875 C 4.222656 -4.398438 4.503906 -4.195312 4.734375 -3.9375 L 4.03125 -3.296875 C 3.71875 -3.660156 3.328125 -3.84375 2.859375 -3.84375 C 2.566406 -3.84375 2.304688 -3.773438 2.078125 -3.640625 C 1.847656 -3.515625 1.671875 -3.335938 1.546875 -3.109375 C 1.421875 -2.890625 1.359375 -2.632812 1.359375 -2.34375 C 1.359375 -2.050781 1.421875 -1.789062 1.546875 -1.5625 C 1.671875 -1.332031 1.847656 -1.15625 2.078125 -1.03125 C 2.304688 -0.90625 2.566406 -0.84375 2.859375 -0.84375 C 3.328125 -0.84375 3.71875 -1.023438 4.03125 -1.390625 L 4.734375 -0.75 C 4.503906 -0.476562 4.222656 -0.269531 3.890625 -0.125 C 3.566406 0.0078125 3.203125 0.078125 2.796875 0.078125 Z M 2.796875 0.078125 "/></g></g></g><g fill="#07416b" fill-opacity="1"><g transform="translate(130.090688, 6.750578)"><g><path d="M 4.171875 -0.875 L 4.171875 0 L 0.5625 0 L 0.5625 -4.6875 L 4.09375 -4.6875 L 4.09375 -3.8125 L 1.625 -3.8125 L 1.625 -2.796875 L 3.8125 -2.796875 L 3.8125 -1.953125 L 1.625 -1.953125 L 1.625 -0.875 Z M 4.171875 -0.875 "/></g></g></g><g fill="#07416b" fill-opacity="1"><g transform="translate(135.722122, 6.750578)"><g><path d="M 2.09375 0.078125 C 1.71875 0.078125 1.359375 0.03125 1.015625 -0.0625 C 0.671875 -0.164062 0.394531 -0.300781 0.1875 -0.46875 L 0.5625 -1.28125 C 0.757812 -1.132812 0.992188 -1.015625 1.265625 -0.921875 C 1.546875 -0.835938 1.820312 -0.796875 2.09375 -0.796875 C 2.40625 -0.796875 2.632812 -0.835938 2.78125 -0.921875 C 2.925781 -1.015625 3 -1.140625 3 -1.296875 C 3 -1.398438 2.953125 -1.488281 2.859375 -1.5625 C 2.773438 -1.632812 2.664062 -1.691406 2.53125 -1.734375 C 2.394531 -1.785156 2.210938 -1.835938 1.984375 -1.890625 C 1.628906 -1.972656 1.335938 -2.054688 1.109375 -2.140625 C 0.878906 -2.234375 0.679688 -2.367188 0.515625 -2.546875 C 0.359375 -2.734375 0.28125 -2.984375 0.28125 -3.296875 C 0.28125 -3.578125 0.351562 -3.828125 0.5 -4.046875 C 0.644531 -4.265625 0.863281 -4.4375 1.15625 -4.5625 C 1.457031 -4.695312 1.820312 -4.765625 2.25 -4.765625 C 2.550781 -4.765625 2.84375 -4.726562 3.125 -4.65625 C 3.414062 -4.582031 3.664062 -4.476562 3.875 -4.34375 L 3.546875 -3.53125 C 3.109375 -3.769531 2.675781 -3.890625 2.25 -3.890625 C 1.945312 -3.890625 1.722656 -3.835938 1.578125 -3.734375 C 1.429688 -3.640625 1.359375 -3.515625 1.359375 -3.359375 C 1.359375 -3.191406 1.441406 -3.066406 1.609375 -2.984375 C 1.773438 -2.910156 2.03125 -2.835938 2.375 -2.765625 C 2.726562 -2.679688 3.019531 -2.597656 3.25 -2.515625 C 3.476562 -2.429688 3.671875 -2.296875 3.828125 -2.109375 C 3.992188 -1.929688 4.078125 -1.6875 4.078125 -1.375 C 4.078125 -1.101562 4 -0.859375 3.84375 -0.640625 C 3.695312 -0.421875 3.472656 -0.242188 3.171875 -0.109375 C 2.878906 0.015625 2.519531 0.078125 2.09375 0.078125 Z M 2.09375 0.078125 "/></g></g></g></g></g></svg>